<svg xmlns="http://www.w3.org/2000/svg" viewBox="0 0 653.08 233.42"><defs><style>.cls-1{fill:#fff;}</style></defs><title>monirhossain</title><g id="Layer_2" data-name="Layer 2"><g id="Layer_1-2" data-name="Layer 1"><path d="M79.22,50,117,163.75,155.17,50H185.4l23.27,138.73a116.2,116.2,0,0,0,24.83-72.29C233.33,53,181.81.89,118.41,0A116.76,116.76,0,0,0,24.93,188.87L49,50Z"/><path d="M130.61,213H103.25L68.91,110,51,213h-.23a116.78,116.78,0,0,0,132,0L165.25,110Z"/><path class="cls-1" d="M208.63,188.67,185.37,50H155.16L117,163.69,79.24,50H49L25,188.8A117.39,117.39,0,0,0,50.82,213H51l17.9-102.94L103.26,213H130.6l34.63-102.94L182.71,213a117.64,117.64,0,0,0,25.92-24.32"/><polygon points="270.04 111 278.06 42 291.3 42 307.15 94.87 322.91 42 336.05 42 344.17 111 330.83 111 324.86 60.18 327.01 60.37 313.49 111 300.53 111 286.82 60.37 289.15 60.28 283.37 111 270.04 111"/><path d="M378.8,111.68a50.36,50.36,0,0,1-12.36-1.35,18.38,18.38,0,0,1-8.88-5c-2.38-2.44-4.17-6-5.34-10.54a74.22,74.22,0,0,1-1.77-17.94,73.49,73.49,0,0,1,1.81-18q1.82-6.91,5.35-10.64a18.26,18.26,0,0,1,8.83-5.11,55.6,55.6,0,0,1,24.71,0A18.26,18.26,0,0,1,400,48.21q3.54,3.72,5.3,10.64a74.75,74.75,0,0,1,1.77,18,74.22,74.22,0,0,1-1.77,17.94q-1.77,6.87-5.3,10.54a18,18,0,0,1-8.83,5,50.34,50.34,0,0,1-12.35,1.35m0-12.36a22.35,22.35,0,0,0,7-.93,8.49,8.49,0,0,0,4.41-3.3,17.23,17.23,0,0,0,2.37-6.78,72.35,72.35,0,0,0,.74-11.48,76.25,76.25,0,0,0-.74-11.89,17.26,17.26,0,0,0-2.37-6.83,8,8,0,0,0-4.41-3.21,24.59,24.59,0,0,0-7-.84,23.78,23.78,0,0,0-6.79.84,8.45,8.45,0,0,0-4.51,3.21,16.57,16.57,0,0,0-2.5,6.83,70.76,70.76,0,0,0-.79,11.89,77.09,77.09,0,0,0,.69,11.48,16.33,16.33,0,0,0,2.37,6.78,8.7,8.7,0,0,0,4.51,3.3,22.78,22.78,0,0,0,7,.93"/><polygon points="417.08 111 417.08 42 427.75 42 457.08 87.5 457.08 42 471.08 42 471.08 111 460.11 111 431.08 65.5 431.08 111 417.08 111"/><rect x="482.08" y="42" width="14" height="69"/><path d="M508.08,111V42h28.53a28.83,28.83,0,0,1,7.65,1,15.36,15.36,0,0,1,6.24,3.4,16.13,16.13,0,0,1,4.25,6.72,33.24,33.24,0,0,1,1.53,11,30.72,30.72,0,0,1-.93,8.11,17.21,17.21,0,0,1-2.47,5.5,13.47,13.47,0,0,1-3.5,3.45,22.85,22.85,0,0,1-4,2.15L558.24,111H544.69L533.43,85.1c-.76,0-1.63,0-2.6,0s-2,0-3,0h-3c-1,0-1.92,0-2.74-.09V111Zm14-36h12.34a11,11,0,0,0,3.36-.47,6,6,0,0,0,2.61-1.63,7.65,7.65,0,0,0,1.73-3.13,17.27,17.27,0,0,0,.61-5,16,16,0,0,0-.61-4.81,6.84,6.84,0,0,0-1.73-3,6.06,6.06,0,0,0-2.61-1.5,12.46,12.46,0,0,0-3.36-.42H522.08Z"/><polygon points="270.08 191 270.08 122 284.08 122 284.08 151 309.08 151 309.08 122 323.08 122 323.08 191 309.08 191 309.08 163 284.08 163 284.08 191 270.08 191"/><path d="M361.85,191.05a50.36,50.36,0,0,1-12.36-1.35,18.49,18.49,0,0,1-8.88-5Q337,181,335.27,174.14a74.16,74.16,0,0,1-1.77-17.94,72.94,72.94,0,0,1,1.82-18q1.8-6.91,5.34-10.64a18.31,18.31,0,0,1,8.83-5.11,55.65,55.65,0,0,1,24.72,0,18.28,18.28,0,0,1,8.82,5.11q3.54,3.72,5.3,10.64a74.75,74.75,0,0,1,1.77,18,74.16,74.16,0,0,1-1.77,17.94q-1.77,6.87-5.3,10.55a18.12,18.12,0,0,1-8.82,5,50.42,50.42,0,0,1-12.36,1.35m0-12.36a22.35,22.35,0,0,0,7-.93,8.41,8.41,0,0,0,4.41-3.3,17.23,17.23,0,0,0,2.37-6.78,71.18,71.18,0,0,0,.74-11.48,75,75,0,0,0-.74-11.89,17.32,17.32,0,0,0-2.37-6.83,8,8,0,0,0-4.41-3.21,24.63,24.63,0,0,0-7-.83,23.81,23.81,0,0,0-6.79.83,8.39,8.39,0,0,0-4.5,3.21,16.48,16.48,0,0,0-2.51,6.83,70.76,70.76,0,0,0-.79,11.89,77.09,77.09,0,0,0,.69,11.48,16.33,16.33,0,0,0,2.37,6.78,8.7,8.7,0,0,0,4.51,3.3,22.78,22.78,0,0,0,7,.93"/><path d="M420.64,191.05c-1.8,0-3.64-.05-5.53-.14s-3.81-.25-5.76-.46-3.8-.47-5.53-.75-3.32-.6-4.74-1V178c1.84.19,3.92.34,6.25.47s4.75.22,7.27.28,4.9.09,7.17.09a26.38,26.38,0,0,0,6-.6,7.46,7.46,0,0,0,3.91-2.14,6.09,6.09,0,0,0,1.38-4.23v-2.51a6,6,0,0,0-1.79-4.69,7.33,7.33,0,0,0-5.11-1.63h-5.76q-9.85,0-15.09-4.32T398.08,144v-3.34q0-10,5.76-14.69t16.43-4.64c2.54,0,5.07.12,7.57.37s4.93.54,7.25.88,4.32.7,6,1.07v10.86q-4.14-.27-9.23-.54c-3.4-.18-6.53-.27-9.41-.27a23,23,0,0,0-5.45.58,6.34,6.34,0,0,0-3.65,2.21,7.33,7.33,0,0,0-1.26,4.59v2.19c0,2.41.68,4.15,2,5.2s3.36,1.58,6,1.58h6.75a20.49,20.49,0,0,1,10.21,2.28,14.59,14.59,0,0,1,6,6.27,20.27,20.27,0,0,1,2,9.11v3.69q0,8.09-3,12.36a15,15,0,0,1-8.36,5.81,45.68,45.68,0,0,1-12.5,1.53"/><path d="M475.64,191.05c-1.8,0-3.64-.05-5.53-.14s-3.81-.25-5.76-.46-3.8-.47-5.53-.75-3.32-.6-4.74-1V178c1.84.19,3.92.34,6.25.47s4.75.22,7.27.28,4.9.09,7.17.09a26.38,26.38,0,0,0,6-.6,7.46,7.46,0,0,0,3.91-2.14,6.09,6.09,0,0,0,1.38-4.23v-2.51a6,6,0,0,0-1.79-4.69,7.33,7.33,0,0,0-5.11-1.63h-5.76q-9.85,0-15.09-4.32T453.08,144v-3.34q0-10,5.76-14.69t16.43-4.64c2.54,0,5.07.12,7.57.37s4.93.54,7.25.88,4.32.7,6,1.07v10.76q-4.29-.29-9.55-.56t-9.74-.28a23.34,23.34,0,0,0-5.63.61,6.55,6.55,0,0,0-3.78,2.28,7.58,7.58,0,0,0-1.3,4.75v2.06c0,2.41.68,4.15,2,5.2s3.36,1.58,6,1.58h6.75a20.49,20.49,0,0,1,10.21,2.28,14.59,14.59,0,0,1,6,6.27,20.27,20.27,0,0,1,2,9.11v3.69q0,8.09-3,12.36a14.94,14.94,0,0,1-8.37,5.81,45.55,45.55,0,0,1-12.49,1.53"/><path d="M505.22,191l21.64-69h17.43l21.63,69H552.17l-4.55-15H523.24l-4.45,15ZM527,164h16.91l-8.46-30.2Z"/><rect x="573.08" y="122" width="14" height="69"/><polygon points="599.08 191 599.08 122 609.75 122 639.08 167.5 639.08 122 653.08 122 653.08 191 642.11 191 613.08 145.5 613.08 191 599.08 191"/></g></g></svg><svg xmlns="http://www.w3.org/2000/svg" viewBox="0 0 473.7 153.8"><title>monir-hossain</title><g id="Layer_2" data-name="Layer 2"><g id="Layer_1-2" data-name="Layer 1"><path d="M63.2,71.4,63,34.3,45,64.5H36.2L18.3,35.3V71.4H0V1.4H16.3L40.9,41.8l24-40.4H81.2l.2,70Z"/><path d="M110.75,68.1a35,35,0,0,1-19-31.7,35,35,0,0,1,19-31.7A41.91,41.91,0,0,1,130.7,0a41.91,41.91,0,0,1,20,4.7A35,35,0,0,1,169.6,36.4a35,35,0,0,1-18.95,31.7,41.91,41.91,0,0,1-20,4.7A41.91,41.91,0,0,1,110.75,68.1ZM140.3,53.9a18,18,0,0,0,6.8-7,21.31,21.31,0,0,0,2.5-10.45A21.31,21.31,0,0,0,147.1,26a18,18,0,0,0-6.8-7,19.68,19.68,0,0,0-19.2,0A18,18,0,0,0,114.3,26a21.31,21.31,0,0,0-2.5,10.45,21.31,21.31,0,0,0,2.5,10.45,18,18,0,0,0,6.8,7,19.68,19.68,0,0,0,19.2,0Z"/><path d="M246.6,1.4v70H230.3L199.4,34.1V71.4H180V1.4h16.3l30.9,37.3V1.4Z"/><path d="M260.6,1.4h19.8v70H260.6Z"/><path d="M325.1,52.8H314.3V71.4H294.5V1.4h32A40,40,0,0,1,343,4.55a24.54,24.54,0,0,1,10.8,9,24.69,24.69,0,0,1,3.8,13.75,24.44,24.44,0,0,1-3.55,13.25A24,24,0,0,1,343.9,49.4l15.1,22H337.8Zm9.4-33.1Q331.4,17,325.3,17h-11V37.5h11q6.09,0,9.2-2.65a9.41,9.41,0,0,0,3.1-7.55A9.56,9.56,0,0,0,334.5,19.7Z"/><path d="M66.6,82.4v70H46.8V125.1h-27v27.3H0v-70H19.8v26.3h27V82.4Z"/><path d="M96,149.1a35.79,35.79,0,0,1,0-63.4,41.91,41.91,0,0,1,20-4.7,41.91,41.91,0,0,1,19.95,4.7,35.79,35.79,0,0,1,0,63.4,41.91,41.91,0,0,1-19.95,4.7A41.91,41.91,0,0,1,96,149.1Zm29.55-14.2a18,18,0,0,0,6.8-7.05,23.09,23.09,0,0,0,0-20.9,18,18,0,0,0-6.8-7,19.68,19.68,0,0,0-19.2,0,18,18,0,0,0-6.8,7,23.09,23.09,0,0,0,0,20.9,18,18,0,0,0,6.8,7.05,19.68,19.68,0,0,0,19.2,0Z"/><path d="M173.3,151.7a40.56,40.56,0,0,1-13-5.6l6.5-14.6a41.91,41.91,0,0,0,10.9,5,41.37,41.37,0,0,0,12.2,1.9q11.4,0,11.4-5.7c0-2-1.09-3.48-3.25-4.45a59.86,59.86,0,0,0-10.45-3,99,99,0,0,1-13.2-3.65,22.12,22.12,0,0,1-9.1-6.25q-3.81-4.3-3.8-11.6A20.09,20.09,0,0,1,165,92.15,23.39,23.39,0,0,1,175.45,84q6.95-3,17.05-3a60.36,60.36,0,0,1,13.6,1.55,41.63,41.63,0,0,1,11.8,4.55l-6.1,14.7q-10-5.4-19.4-5.4c-3.94,0-6.8.58-8.6,1.75a5.25,5.25,0,0,0-2.7,4.55q0,2.8,3.2,4.2a57.89,57.89,0,0,0,10.3,2.9,96.15,96.15,0,0,1,13.25,3.65,22.94,22.94,0,0,1,9.1,6.2q3.84,4.25,3.85,11.55a19.71,19.71,0,0,1-3.5,11.4,23.91,23.91,0,0,1-10.5,8.15,42.56,42.56,0,0,1-17,3.05A64.68,64.68,0,0,1,173.3,151.7Z"/><path d="M238,151.7a40.56,40.56,0,0,1-13-5.6l6.5-14.6a41.91,41.91,0,0,0,10.9,5,41.37,41.37,0,0,0,12.2,1.9q11.4,0,11.4-5.7c0-2-1.09-3.48-3.25-4.45a59.86,59.86,0,0,0-10.45-3,99,99,0,0,1-13.2-3.65,22.12,22.12,0,0,1-9.1-6.25q-3.81-4.3-3.8-11.6a20,20,0,0,1,3.5-11.55A23.39,23.39,0,0,1,240.15,84q6.94-3,17-3a60.36,60.36,0,0,1,13.6,1.55,41.63,41.63,0,0,1,11.8,4.55l-6.1,14.7q-10-5.4-19.4-5.4c-3.94,0-6.8.58-8.6,1.75a5.25,5.25,0,0,0-2.7,4.55c0,1.87,1.06,3.27,3.2,4.2a57.89,57.89,0,0,0,10.3,2.9,96.15,96.15,0,0,1,13.25,3.65,22.94,22.94,0,0,1,9.1,6.2q3.84,4.25,3.85,11.55a19.71,19.71,0,0,1-3.5,11.4,23.91,23.91,0,0,1-10.5,8.15,42.56,42.56,0,0,1-17,3.05A64.68,64.68,0,0,1,238,151.7Z"/><path d="M341.5,138.8H311.9l-5.5,13.6H286.2l30.9-70h19.5l31,70H347Zm-5.8-14.6-9-22.4-9,22.4Z"/><path d="M373.2,82.4H393v70H373.2Z"/><path d="M473.7,82.4v70H457.4l-30.9-37.3v37.3H407.1v-70h16.3l30.9,37.3V82.4Z"/></g></g></svg>
