<svg xmlns="http://www.w3.org/2000/svg" viewBox="0 0 473.7 153.8"><title>monir-hossain</title><g id="Layer_2" data-name="Layer 2"><g id="Layer_1-2" data-name="Layer 1"><path d="M63.2,71.4,63,34.3,45,64.5H36.2L18.3,35.3V71.4H0V1.4H16.3L40.9,41.8l24-40.4H81.2l.2,70Z"/><path d="M110.75,68.1a35,35,0,0,1-19-31.7,35,35,0,0,1,19-31.7A41.91,41.91,0,0,1,130.7,0a41.91,41.91,0,0,1,20,4.7A35,35,0,0,1,169.6,36.4a35,35,0,0,1-18.95,31.7,41.91,41.91,0,0,1-20,4.7A41.91,41.91,0,0,1,110.75,68.1ZM140.3,53.9a18,18,0,0,0,6.8-7,21.31,21.31,0,0,0,2.5-10.45A21.31,21.31,0,0,0,147.1,26a18,18,0,0,0-6.8-7,19.68,19.68,0,0,0-19.2,0A18,18,0,0,0,114.3,26a21.31,21.31,0,0,0-2.5,10.45,21.31,21.31,0,0,0,2.5,10.45,18,18,0,0,0,6.8,7,19.68,19.68,0,0,0,19.2,0Z"/><path d="M246.6,1.4v70H230.3L199.4,34.1V71.4H180V1.4h16.3l30.9,37.3V1.4Z"/><path d="M260.6,1.4h19.8v70H260.6Z"/><path d="M325.1,52.8H314.3V71.4H294.5V1.4h32A40,40,0,0,1,343,4.55a24.54,24.54,0,0,1,10.8,9,24.69,24.69,0,0,1,3.8,13.75,24.44,24.44,0,0,1-3.55,13.25A24,24,0,0,1,343.9,49.4l15.1,22H337.8Zm9.4-33.1Q331.4,17,325.3,17h-11V37.5h11q6.09,0,9.2-2.65a9.41,9.41,0,0,0,3.1-7.55A9.56,9.56,0,0,0,334.5,19.7Z"/><path d="M66.6,82.4v70H46.8V125.1h-27v27.3H0v-70H19.8v26.3h27V82.4Z"/><path d="M96,149.1a35.79,35.79,0,0,1,0-63.4,41.91,41.91,0,0,1,20-4.7,41.91,41.91,0,0,1,19.95,4.7,35.79,35.79,0,0,1,0,63.4,41.91,41.91,0,0,1-19.95,4.7A41.91,41.91,0,0,1,96,149.1Zm29.55-14.2a18,18,0,0,0,6.8-7.05,23.09,23.09,0,0,0,0-20.9,18,18,0,0,0-6.8-7,19.68,19.68,0,0,0-19.2,0,18,18,0,0,0-6.8,7,23.09,23.09,0,0,0,0,20.9,18,18,0,0,0,6.8,7.05,19.68,19.68,0,0,0,19.2,0Z"/><path d="M173.3,151.7a40.56,40.56,0,0,1-13-5.6l6.5-14.6a41.91,41.91,0,0,0,10.9,5,41.37,41.37,0,0,0,12.2,1.9q11.4,0,11.4-5.7c0-2-1.09-3.48-3.25-4.45a59.86,59.86,0,0,0-10.45-3,99,99,0,0,1-13.2-3.65,22.12,22.12,0,0,1-9.1-6.25q-3.81-4.3-3.8-11.6A20.09,20.09,0,0,1,165,92.15,23.39,23.39,0,0,1,175.45,84q6.95-3,17.05-3a60.36,60.36,0,0,1,13.6,1.55,41.63,41.63,0,0,1,11.8,4.55l-6.1,14.7q-10-5.4-19.4-5.4c-3.94,0-6.8.58-8.6,1.75a5.25,5.25,0,0,0-2.7,4.55q0,2.8,3.2,4.2a57.89,57.89,0,0,0,10.3,2.9,96.15,96.15,0,0,1,13.25,3.65,22.94,22.94,0,0,1,9.1,6.2q3.84,4.25,3.85,11.55a19.71,19.71,0,0,1-3.5,11.4,23.91,23.91,0,0,1-10.5,8.15,42.56,42.56,0,0,1-17,3.05A64.68,64.68,0,0,1,173.3,151.7Z"/><path d="M238,151.7a40.56,40.56,0,0,1-13-5.6l6.5-14.6a41.91,41.91,0,0,0,10.9,5,41.37,41.37,0,0,0,12.2,1.9q11.4,0,11.4-5.7c0-2-1.09-3.48-3.25-4.45a59.86,59.86,0,0,0-10.45-3,99,99,0,0,1-13.2-3.65,22.12,22.12,0,0,1-9.1-6.25q-3.81-4.3-3.8-11.6a20,20,0,0,1,3.5-11.55A23.39,23.39,0,0,1,240.15,84q6.94-3,17-3a60.36,60.36,0,0,1,13.6,1.55,41.63,41.63,0,0,1,11.8,4.55l-6.1,14.7q-10-5.4-19.4-5.4c-3.94,0-6.8.58-8.6,1.75a5.25,5.25,0,0,0-2.7,4.55c0,1.87,1.06,3.27,3.2,4.2a57.89,57.89,0,0,0,10.3,2.9,96.15,96.15,0,0,1,13.25,3.65,22.94,22.94,0,0,1,9.1,6.2q3.84,4.25,3.85,11.55a19.71,19.71,0,0,1-3.5,11.4,23.91,23.91,0,0,1-10.5,8.15,42.56,42.56,0,0,1-17,3.05A64.68,64.68,0,0,1,238,151.7Z"/><path d="M341.5,138.8H311.9l-5.5,13.6H286.2l30.9-70h19.5l31,70H347Zm-5.8-14.6-9-22.4-9,22.4Z"/><path d="M373.2,82.4H393v70H373.2Z"/><path d="M473.7,82.4v70H457.4l-30.9-37.3v37.3H407.1v-70h16.3l30.9,37.3V82.4Z"/></g></g></svg>